<svg xmlns="http://www.w3.org/2000/svg" width="886.3" height="584.375" viewBox="0 0 886.3 584.375">
	<!-- Generated by PyTermGUI -->
	<style type="text/css">
        text.ptg {
            font-size: 15px;
            font-family: Menlo, 'DejaVu Sans Mono', consolas, 'Courier New', monospace;
            font-feature-settings: normal;
            /* Inline SVGs are `antialiased` by default, while `src=`-d ones are `auto`.*/
            -webkit-font-smoothing: auto;
        }
        .ptg-title {
            font-family: 'arial';
            fill: #94999A;
            font-size: 13px;
            font-weight: bold;
        }
        .ptg-0 {fill:#767676}
        .ptg-1 {fill:#ffff00}
        .ptg-2 {fill:#ffd700}
        .ptg-3 {fill:#eeeeee}
        .ptg-4 {fill:#dddddd}
    </style>
	<g>
		<rect x="0" y="20" rx="9px" ry="9px" stroke-width="1px" stroke-linejoin="round" width="886.3" height="544.375" fill="#161f21"/>
		<circle cx="15" cy="35" r="6" fill="#ff6159"/>
		<circle cx="35" cy="35" r="6" fill="#ffbd2e"/>
		<circle cx="55" cy="35" r="6" fill="#28c941"/>
		<text x="443.0" y="38.975" text-anchor="middle" class="ptg-title">Sipedon</text>
	</g>
	<g transform="translate(20, 55)">
		<rect x="203.9" y="114.6" fill="#161f21" width="9.49" height="19.35"/>
		<text dy="-0.25em" x="203.9" y="132.83" textLength="9.3" class="ptg ptg-0">&lt;</text>
		<rect x="213.2" y="114.6" fill="#161f21" width="9.49" height="19.35"/>
		<text dy="-0.25em" x="213.2" y="132.83" textLength="9.3" class="ptg ptg-1">'</text>
		<rect x="222.5" y="114.6" fill="#161f21" width="9.49" height="19.35"/>
		<text dy="-0.25em" x="222.5" y="132.83" textLength="9.3" class="ptg ptg-2">&gt;</text>
		<rect x="231.8" y="114.6" fill="#161f21" width="9.49" height="19.35"/>
		<text dy="-0.25em" x="231.8" y="132.83" textLength="9.3" class="ptg ptg-2">&lt;</text>
		<rect x="473.6" y="171.52" fill="#161f21" width="9.49" height="19.35"/>
		<text dy="-0.25em" x="473.6" y="189.75" textLength="9.3" class="ptg ptg-1">&gt;</text>
		<rect x="482.9" y="171.52" fill="#161f21" width="9.49" height="19.35"/>
		<text dy="-0.25em" x="482.9" y="189.75" textLength="9.3" class="ptg ptg-2">&lt;</text>
		<rect x="492.2" y="171.52" fill="#161f21" width="9.49" height="19.35"/>
		<text dy="-0.25em" x="492.2" y="189.75" textLength="9.3" class="ptg ptg-3">'</text>
		<rect x="501.5" y="171.52" fill="#161f21" width="9.49" height="19.35"/>
		<text dy="-0.25em" x="501.5" y="189.75" textLength="9.3" class="ptg ptg-1">&gt;</text>
		<rect x="241.1" y="418.2" fill="#161f21" width="9.49" height="19.35"/>
		<text dy="-0.25em" x="241.1" y="436.43" textLength="9.3" class="ptg ptg-2">&lt;</text>
		<rect x="250.4" y="418.2" fill="#161f21" width="9.49" height="19.35"/>
		<text dy="-0.25em" x="250.4" y="436.43" textLength="9.3" class="ptg ptg-3">'</text>
		<rect x="259.7" y="418.2" fill="#161f21" width="9.49" height="19.35"/>
		<text dy="-0.25em" x="259.7" y="436.43" textLength="9.3" class="ptg ptg-1">&gt;</text>
		<rect x="269.0" y="418.2" fill="#161f21" width="9.49" height="19.35"/>
		<text dy="-0.25em" x="269.0" y="436.43" textLength="9.3" class="ptg ptg-2">&lt;</text>
		<rect x="464.3" y="342.3" fill="#161f21" width="9.49" height="19.35"/>
		<text dy="-0.25em" x="464.3" y="360.53" textLength="9.3" class="ptg ptg-3">&gt;</text>
		<rect x="473.6" y="342.3" fill="#161f21" width="9.49" height="19.35"/>
		<text dy="-0.25em" x="473.6" y="360.53" textLength="9.3" class="ptg ptg-0">&lt;</text>
		<rect x="482.9" y="342.3" fill="#161f21" width="9.49" height="19.35"/>
		<text dy="-0.25em" x="482.9" y="360.53" textLength="9.3" class="ptg ptg-3">'</text>
		<rect x="492.2" y="342.3" fill="#161f21" width="9.49" height="19.35"/>
		<text dy="-0.25em" x="492.2" y="360.53" textLength="9.3" class="ptg ptg-0">&gt;</text>
		<rect x="464.3" y="342.3" fill="#161f21" width="9.49" height="19.35"/>
		<text dy="-0.25em" x="464.3" y="360.53" textLength="9.3" class="ptg ptg-2">&lt;</text>
		<rect x="473.6" y="342.3" fill="#161f21" width="9.49" height="19.35"/>
		<text dy="-0.25em" x="473.6" y="360.53" textLength="9.3" class="ptg ptg-2">'</text>
		<rect x="482.9" y="342.3" fill="#161f21" width="9.49" height="19.35"/>
		<text dy="-0.25em" x="482.9" y="360.53" textLength="9.3" class="ptg ptg-2">&gt;</text>
		<rect x="492.2" y="342.3" fill="#161f21" width="9.49" height="19.35"/>
		<text dy="-0.25em" x="492.2" y="360.53" textLength="9.3" class="ptg ptg-0">&lt;</text>
		<rect x="566.6" y="228.45" fill="#161f21" width="9.49" height="19.35"/>
		<text dy="-0.25em" x="566.6" y="246.68" textLength="9.3" class="ptg ptg-0">&lt;</text>
		<rect x="575.9" y="228.45" fill="#161f21" width="9.49" height="19.35"/>
		<text dy="-0.25em" x="575.9" y="246.68" textLength="9.3" class="ptg ptg-1">'</text>
		<rect x="585.2" y="228.45" fill="#161f21" width="9.49" height="19.35"/>
		<text dy="-0.25em" x="585.2" y="246.68" textLength="9.3" class="ptg ptg-2">&gt;</text>
		<rect x="594.5" y="228.45" fill="#161f21" width="9.49" height="19.35"/>
		<text dy="-0.25em" x="594.5" y="246.68" textLength="9.3" class="ptg ptg-3">&lt;</text>
		<rect x="678.2" y="380.25" fill="#161f21" width="9.49" height="19.35"/>
		<text dy="-0.25em" x="678.2" y="398.48" textLength="9.3" class="ptg ptg-3">&lt;</text>
		<rect x="687.5" y="380.25" fill="#161f21" width="9.49" height="19.35"/>
		<text dy="-0.25em" x="687.5" y="398.48" textLength="9.3" class="ptg ptg-1">'</text>
		<rect x="696.8" y="380.25" fill="#161f21" width="9.49" height="19.35"/>
		<text dy="-0.25em" x="696.8" y="398.48" textLength="9.3" class="ptg ptg-1">&gt;</text>
		<rect x="706.1" y="380.25" fill="#161f21" width="9.49" height="19.35"/>
		<text dy="-0.25em" x="706.1" y="398.48" textLength="9.3" class="ptg ptg-0">&lt;</text>
		<rect x="213.2" y="190.5" fill="#161f21" width="9.49" height="19.35"/>
		<text dy="-0.25em" x="213.2" y="208.73" textLength="9.3" class="ptg ptg-0">&lt;</text>
		<rect x="222.5" y="190.5" fill="#161f21" width="9.49" height="19.35"/>
		<text dy="-0.25em" x="222.5" y="208.73" textLength="9.3" class="ptg ptg-0">'</text>
		<rect x="231.8" y="190.5" fill="#161f21" width="9.49" height="19.35"/>
		<text dy="-0.25em" x="231.8" y="208.73" textLength="9.3" class="ptg ptg-0">&gt;</text>
		<rect x="241.1" y="190.5" fill="#161f21" width="9.49" height="19.35"/>
		<text dy="-0.25em" x="241.1" y="208.73" textLength="9.3" class="ptg ptg-2">&lt;</text>
		<rect x="343.4" y="190.5" fill="#161f21" width="9.49" height="19.35"/>
		<text dy="-0.25em" x="343.4" y="208.73" textLength="9.3" class="ptg ptg-2">&gt;</text>
		<rect x="352.7" y="190.5" fill="#161f21" width="9.49" height="19.35"/>
		<text dy="-0.25em" x="352.7" y="208.73" textLength="9.3" class="ptg ptg-0">&lt;</text>
		<rect x="362.0" y="190.5" fill="#161f21" width="9.49" height="19.35"/>
		<text dy="-0.25em" x="362.0" y="208.73" textLength="9.3" class="ptg ptg-3">'</text>
		<rect x="371.3" y="190.5" fill="#161f21" width="9.49" height="19.35"/>
		<text dy="-0.25em" x="371.3" y="208.73" textLength="9.3" class="ptg ptg-1">&gt;</text>
		<rect x="622.4" y="171.52" fill="#161f21" width="9.49" height="19.35"/>
		<text dy="-0.25em" x="622.4" y="189.75" textLength="9.3" class="ptg ptg-0">&lt;</text>
		<rect x="631.7" y="171.52" fill="#161f21" width="9.49" height="19.35"/>
		<text dy="-0.25em" x="631.7" y="189.75" textLength="9.3" class="ptg ptg-0">'</text>
		<rect x="641.0" y="171.52" fill="#161f21" width="9.49" height="19.35"/>
		<text dy="-0.25em" x="641.0" y="189.75" textLength="9.3" class="ptg ptg-0">&gt;</text>
		<rect x="650.3" y="171.52" fill="#161f21" width="9.49" height="19.35"/>
		<text dy="-0.25em" x="650.3" y="189.75" textLength="9.3" class="ptg ptg-3">&lt;</text>
		<rect x="659.6" y="174.75" fill="#161f21" width="0.0" height="19.35"/>
		<text dy="-0.25em" x="659.6" y="189.75" textLength="0.0" class="ptg ptg-4"/>
	</g>
</svg>