<svg xmlns="http://www.w3.org/2000/svg" width="793.3" height="755.15" viewBox="0 0 793.3 755.15">
	<!-- Generated by PyTermGUI -->
	<style type="text/css">
        text.ptg {
            font-size: 15px;
            font-family: Menlo, 'DejaVu Sans Mono', consolas, 'Courier New', monospace;
            font-feature-settings: normal;
            /* Inline SVGs are `antialiased` by default, while `src=`-d ones are `auto`.*/
            -webkit-font-smoothing: auto;
        }
        .ptg-title {
            font-family: 'arial';
            fill: #94999A;
            font-size: 13px;
            font-weight: bold;
        }
        .ptg-0 {fill:#ffd700}
        .ptg-1 {fill:#ffff00}
        .ptg-2 {fill:#767676}
        .ptg-3 {fill:#eeeeee}
        .ptg-4 {fill:#dddddd}
    </style>
	<g>
		<rect x="0" y="20" rx="9px" ry="9px" stroke-width="1px" stroke-linejoin="round" width="793.3" height="715.15" fill="#161f21"/>
		<circle cx="15" cy="35" r="6" fill="#ff6159"/>
		<circle cx="35" cy="35" r="6" fill="#ffbd2e"/>
		<circle cx="55" cy="35" r="6" fill="#28c941"/>
		<text x="396.0" y="38.975" text-anchor="middle" class="ptg-title">Sipedon</text>
	</g>
	<g transform="translate(20, 55)">
		<rect x="306.2" y="380.25" fill="#161f21" width="9.49" height="19.35"/>
		<text dy="-0.25em" x="306.2" y="398.48" textLength="9.3" class="ptg ptg-0">&lt;</text>
		<rect x="315.5" y="380.25" fill="#161f21" width="9.49" height="19.35"/>
		<text dy="-0.25em" x="315.5" y="398.48" textLength="9.3" class="ptg ptg-1">'</text>
		<rect x="324.8" y="380.25" fill="#161f21" width="9.49" height="19.35"/>
		<text dy="-0.25em" x="324.8" y="398.48" textLength="9.3" class="ptg ptg-2">&gt;</text>
		<rect x="334.1" y="380.25" fill="#161f21" width="9.49" height="19.35"/>
		<text dy="-0.25em" x="334.1" y="398.48" textLength="9.3" class="ptg ptg-1">&lt;</text>
		<rect x="482.9" y="38.7" fill="#161f21" width="9.49" height="19.35"/>
		<text dy="-0.25em" x="482.9" y="56.93" textLength="9.3" class="ptg ptg-2">&lt;</text>
		<rect x="492.2" y="38.7" fill="#161f21" width="9.49" height="19.35"/>
		<text dy="-0.25em" x="492.2" y="56.93" textLength="9.3" class="ptg ptg-3">'</text>
		<rect x="501.5" y="38.7" fill="#161f21" width="9.49" height="19.35"/>
		<text dy="-0.25em" x="501.5" y="56.93" textLength="9.3" class="ptg ptg-2">&gt;</text>
		<rect x="510.8" y="38.7" fill="#161f21" width="9.49" height="19.35"/>
		<text dy="-0.25em" x="510.8" y="56.93" textLength="9.3" class="ptg ptg-3">&lt;</text>
		<rect x="538.7" y="247.42" fill="#161f21" width="9.49" height="19.35"/>
		<text dy="-0.25em" x="538.7" y="265.65" textLength="9.3" class="ptg ptg-0">&gt;</text>
		<rect x="548.0" y="247.42" fill="#161f21" width="9.49" height="19.35"/>
		<text dy="-0.25em" x="548.0" y="265.65" textLength="9.3" class="ptg ptg-3">&lt;</text>
		<rect x="557.3" y="247.42" fill="#161f21" width="9.49" height="19.35"/>
		<text dy="-0.25em" x="557.3" y="265.65" textLength="9.3" class="ptg ptg-0">'</text>
		<rect x="566.6" y="247.42" fill="#161f21" width="9.49" height="19.35"/>
		<text dy="-0.25em" x="566.6" y="265.65" textLength="9.3" class="ptg ptg-0">&gt;</text>
		<rect x="259.7" y="418.2" fill="#161f21" width="9.49" height="19.35"/>
		<text dy="-0.25em" x="259.7" y="436.43" textLength="9.3" class="ptg ptg-2">&lt;</text>
		<rect x="269.0" y="418.2" fill="#161f21" width="9.49" height="19.35"/>
		<text dy="-0.25em" x="269.0" y="436.43" textLength="9.3" class="ptg ptg-0">'</text>
		<rect x="278.3" y="418.2" fill="#161f21" width="9.49" height="19.35"/>
		<text dy="-0.25em" x="278.3" y="436.43" textLength="9.3" class="ptg ptg-2">&gt;</text>
		<rect x="287.6" y="418.2" fill="#161f21" width="9.49" height="19.35"/>
		<text dy="-0.25em" x="287.6" y="436.43" textLength="9.3" class="ptg ptg-3">&lt;</text>
		<rect x="510.8" y="456.15" fill="#161f21" width="9.49" height="19.35"/>
		<text dy="-0.25em" x="510.8" y="474.38" textLength="9.3" class="ptg ptg-3">&gt;</text>
		<rect x="520.1" y="456.15" fill="#161f21" width="9.49" height="19.35"/>
		<text dy="-0.25em" x="520.1" y="474.38" textLength="9.3" class="ptg ptg-1">&lt;</text>
		<rect x="529.4" y="456.15" fill="#161f21" width="9.49" height="19.35"/>
		<text dy="-0.25em" x="529.4" y="474.38" textLength="9.3" class="ptg ptg-0">'</text>
		<rect x="538.7" y="456.15" fill="#161f21" width="9.49" height="19.35"/>
		<text dy="-0.25em" x="538.7" y="474.38" textLength="9.3" class="ptg ptg-3">&gt;</text>
		<rect x="668.9" y="57.67" fill="#161f21" width="9.49" height="19.35"/>
		<text dy="-0.25em" x="668.9" y="75.9" textLength="9.3" class="ptg ptg-0">&gt;</text>
		<rect x="678.2" y="57.67" fill="#161f21" width="9.49" height="19.35"/>
		<text dy="-0.25em" x="678.2" y="75.9" textLength="9.3" class="ptg ptg-3">&lt;</text>
		<rect x="687.5" y="57.67" fill="#161f21" width="9.49" height="19.35"/>
		<text dy="-0.25em" x="687.5" y="75.9" textLength="9.3" class="ptg ptg-0">'</text>
		<rect x="696.8" y="57.67" fill="#161f21" width="9.49" height="19.35"/>
		<text dy="-0.25em" x="696.8" y="75.9" textLength="9.3" class="ptg ptg-1">&gt;</text>
		<rect x="157.4" y="418.2" fill="#161f21" width="9.49" height="19.35"/>
		<text dy="-0.25em" x="157.4" y="436.43" textLength="9.3" class="ptg ptg-1">&lt;</text>
		<rect x="166.7" y="418.2" fill="#161f21" width="9.49" height="19.35"/>
		<text dy="-0.25em" x="166.7" y="436.43" textLength="9.3" class="ptg ptg-0">'</text>
		<rect x="176.0" y="418.2" fill="#161f21" width="9.49" height="19.35"/>
		<text dy="-0.25em" x="176.0" y="436.43" textLength="9.3" class="ptg ptg-3">&gt;</text>
		<rect x="185.3" y="418.2" fill="#161f21" width="9.49" height="19.35"/>
		<text dy="-0.25em" x="185.3" y="436.43" textLength="9.3" class="ptg ptg-2">&lt;</text>
		<rect x="157.4" y="152.55" fill="#161f21" width="9.49" height="19.35"/>
		<text dy="-0.25em" x="157.4" y="170.78" textLength="9.3" class="ptg ptg-0">&lt;</text>
		<rect x="166.7" y="152.55" fill="#161f21" width="9.49" height="19.35"/>
		<text dy="-0.25em" x="166.7" y="170.78" textLength="9.3" class="ptg ptg-3">'</text>
		<rect x="176.0" y="152.55" fill="#161f21" width="9.49" height="19.35"/>
		<text dy="-0.25em" x="176.0" y="170.78" textLength="9.3" class="ptg ptg-1">&gt;</text>
		<rect x="185.3" y="152.55" fill="#161f21" width="9.49" height="19.35"/>
		<text dy="-0.25em" x="185.3" y="170.78" textLength="9.3" class="ptg ptg-1">&lt;</text>
		<rect x="269.0" y="342.3" fill="#161f21" width="9.49" height="19.35"/>
		<text dy="-0.25em" x="269.0" y="360.53" textLength="9.3" class="ptg ptg-1">&lt;</text>
		<rect x="278.3" y="342.3" fill="#161f21" width="9.49" height="19.35"/>
		<text dy="-0.25em" x="278.3" y="360.53" textLength="9.3" class="ptg ptg-2">'</text>
		<rect x="287.6" y="342.3" fill="#161f21" width="9.49" height="19.35"/>
		<text dy="-0.25em" x="287.6" y="360.53" textLength="9.3" class="ptg ptg-1">&gt;</text>
		<rect x="296.9" y="342.3" fill="#161f21" width="9.49" height="19.35"/>
		<text dy="-0.25em" x="296.9" y="360.53" textLength="9.3" class="ptg ptg-0">&lt;</text>
		<rect x="566.6" y="114.6" fill="#161f21" width="9.49" height="19.35"/>
		<text dy="-0.25em" x="566.6" y="132.83" textLength="9.3" class="ptg ptg-0">&gt;</text>
		<rect x="575.9" y="114.6" fill="#161f21" width="9.49" height="19.35"/>
		<text dy="-0.25em" x="575.9" y="132.83" textLength="9.3" class="ptg ptg-0">&lt;</text>
		<rect x="585.2" y="114.6" fill="#161f21" width="9.49" height="19.35"/>
		<text dy="-0.25em" x="585.2" y="132.83" textLength="9.3" class="ptg ptg-0">'</text>
		<rect x="594.5" y="114.6" fill="#161f21" width="9.49" height="19.35"/>
		<text dy="-0.25em" x="594.5" y="132.83" textLength="9.3" class="ptg ptg-3">&gt;</text>
		<rect x="603.8" y="117.83" fill="#161f21" width="0.0" height="19.35"/>
		<text dy="-0.25em" x="603.8" y="132.83" textLength="0.0" class="ptg ptg-4"/>
	</g>
</svg>